# xmcd
#
# Track frame offsets: 
#        150
#        16712
#        32527
#        48105
#        62807
#        76390
#        86945
#        102810
#        118000
#        133367
#        147285
#        159842
#
# Disc length: 2321 seconds
#
# Revision: 1
# Processed by: cddbd v1.5.2PL0 Copyright (c) Steve Scherf et al.
# Submitted via: ExactAudioCopy v0.99pb3
#
DISCID=95090f0c
DTITLE=ชัวร์ ชะชะช่า - ชุดที่ 2
DYEAR=2001
DGENRE=Country
TTITLE0=กลับไปถามเมี'ูก่อน หญิง
TTITLE1=ดื่มเหล้าเผากลุ้ม ชาย
TTITLE2=จดหมายผิดซอง-ผิดซองเพราะลองใจ ช-ญ
TTITLE3=โอ๊ยเจ็บ หญิง
TTITLE4=ฝนตกฟ้าร้อง ชาย
TTITLE5=สุดท้ายที่กรุงเทพฯ หญิง
TTITLE6=โปรดพิจารณา ชาย
TTITLE7=แฟนฉันไม่ต้องหล่อ หญิง
TTITLE8=รักติ๋มคนเดียว-รักติ๋มแน่หรือ ช-ญ
TTITLE9=มอเตอร์ไซค์นุ่งสั้น หญิง
TTITLE10=รักมาห้าปี ชาย
TTITLE11=เรารอ-เขาลืม หญิง
EXTD=Thai Album
EXTT0=
EXTT1=
EXTT2=
EXTT3=
EXTT4=
EXTT5=
EXTT6=
EXTT7=
EXTT8=
EXTT9=
EXTT10=
EXTT11=
PLAYORDER=
